<svg width="23" height="19" viewBox="0 0 23 19" fill="none" xmlns="http://www.w3.org/2000/svg">
<path d="M22.7891 16.5273C22.9297 16.7031 22.9648 16.9141 22.9648 17.1602C22.9648 17.3359 22.9297 17.5117 22.8594 17.6875C22.6484 18.0391 22.2617 18.25 21.875 18.25H1.625C1.16797 18.25 0.816406 18.0391 0.605469 17.6875C0.535156 17.5117 0.5 17.3359 0.5 17.125C0.5 16.9141 0.535156 16.7031 0.675781 16.5273L10.8008 0.777344C10.9766 0.460938 11.3633 0.25 11.75 0.25C12.1016 0.25 12.4883 0.460938 12.6641 0.777344L22.7891 16.5273ZM11.75 3.48438L8.12891 9.03906L9.5 10.375L11.75 8.125H14.7383L11.75 3.48438Z" fill="#7E3308"/>
</svg>
