<svg width="13" height="19" viewBox="0 0 13 19" fill="none" xmlns="http://www.w3.org/2000/svg">
<path d="M7.20703 1.05859C8.85938 6.61328 12.375 8.08984 12.375 11.9922C12.375 15.4727 9.59766 18.25 6.1875 18.25C2.74219 18.25 0 15.4727 0 11.9922C0 8.08984 3.51562 6.57812 5.13281 1.05859C5.30859 0.53125 5.73047 0.25 6.15234 0.25C6.60938 0.25 7.06641 0.53125 7.20703 1.05859ZM6.1875 16.5625C8.64844 16.5625 10.6875 14.5234 10.6875 11.9922C10.6875 10.4805 9.94922 9.42578 8.85938 7.87891C8.01562 6.64844 6.99609 5.20703 6.1875 3.20312C5.34375 5.20703 4.35938 6.64844 3.48047 7.87891C2.39062 9.42578 1.6875 10.4805 1.6875 11.9922C1.6875 14.5234 3.69141 16.5625 6.1875 16.5625ZM6.75 14.3125C7.03125 14.3125 7.3125 14.5938 7.3125 14.875C7.3125 15.1914 7.03125 15.4375 6.75 15.4375C4.57031 15.4375 2.8125 13.6797 2.8125 11.5C2.8125 11.2188 3.05859 10.9375 3.375 10.9375C3.65625 10.9375 3.9375 11.2188 3.9375 11.5C3.9375 13.082 5.16797 14.3125 6.75 14.3125Z" fill="black"/>
</svg>
