<svg width="13" height="20" viewBox="0 0 13 20" fill="none" xmlns="http://www.w3.org/2000/svg">
<path d="M7.20703 2.05859C8.85938 7.61328 12.375 9.08984 12.375 12.9922C12.375 16.4727 9.59766 19.25 6.1875 19.25C2.74219 19.25 0 16.4727 0 12.9922C0 9.08984 3.51562 7.57812 5.13281 2.05859C5.44922 0.96875 6.92578 1.03906 7.20703 2.05859ZM6.1875 17C6.46875 17 6.75 16.7539 6.75 16.4375C6.75 16.1562 6.46875 15.875 6.1875 15.875C4.60547 15.875 3.375 14.6445 3.375 13.0625C3.375 12.7812 3.09375 12.5 2.8125 12.5C2.49609 12.5 2.25 12.7812 2.25 13.0625C2.25 15.2422 4.00781 17 6.1875 17Z" fill="#088DC2"/>
</svg>
